<?xml version="1.0" encoding="UTF-8" standalone="no"?>
<!DOCTYPE svg PUBLIC "-//W3C//DTD SVG 1.1//EN"
 "http://www.w3.org/Graphics/SVG/1.1/DTD/svg11.dtd">
<!-- Generated by graphviz version 2.47.3 (20210619.1520)
 -->
<!-- Title: dependencies Pages: 1 -->
<svg width="1583pt" height="247pt"
 viewBox="0.00 0.00 1583.00 246.80" xmlns="http://www.w3.org/2000/svg" xmlns:xlink="http://www.w3.org/1999/xlink">
<g id="graph0" class="graph" transform="scale(1 1) rotate(0) translate(4 242.8)">
<title>dependencies</title>
<polygon fill="white" stroke="transparent" points="-4,4 -4,-242.8 1579,-242.8 1579,4 -4,4"/>
<text text-anchor="middle" x="787.5" y="-8.2" font-family="sans-serif" font-size="14.00">dependencies</text>
<g id="clust1" class="cluster">
<title>cluster_AppModule</title>
<polygon fill="none" stroke="black" stroke-dasharray="1,5" points="8,-32.8 8,-230.8 1567,-230.8 1567,-32.8 8,-32.8"/>
</g>
<g id="clust12" class="cluster">
<title>cluster_AppModule_imports</title>
<polygon fill="none" stroke="black" points="1415,-40.8 1415,-92.8 1559,-92.8 1559,-40.8 1415,-40.8"/>
</g>
<g id="clust14" class="cluster">
<title>cluster_AppModule_bootstrap</title>
<polygon fill="none" stroke="black" points="768,-170.8 768,-222.8 892,-222.8 892,-170.8 768,-170.8"/>
</g>
<g id="clust2" class="cluster">
<title>cluster_AppModule_declarations</title>
<polygon fill="none" stroke="black" points="16,-40.8 16,-92.8 1407,-92.8 1407,-40.8 16,-40.8"/>
</g>
<!-- AppComponent -->
<g id="node1" class="node">
<title>AppComponent</title>
<polygon fill="#ffffb3" stroke="black" points="1398.94,-84.8 1293.06,-84.8 1293.06,-48.8 1398.94,-48.8 1398.94,-84.8"/>
<text text-anchor="middle" x="1346" y="-62.6" font-family="Times,serif" font-size="14.00">AppComponent</text>
</g>
<!-- AppModule -->
<g id="node10" class="node">
<title>AppModule</title>
<polygon fill="#8dd3c7" stroke="black" points="871.66,-149.8 868.66,-153.8 847.66,-153.8 844.66,-149.8 788.34,-149.8 788.34,-113.8 871.66,-113.8 871.66,-149.8"/>
<text text-anchor="middle" x="830" y="-127.6" font-family="Times,serif" font-size="14.00">AppModule</text>
</g>
<!-- AppComponent&#45;&gt;AppModule -->
<g id="edge1" class="edge">
<title>AppComponent&#45;&gt;AppModule</title>
<path fill="none" stroke="black" d="M1346,-84.93C1346,-105.37 1346,-135.8 1346,-135.8 1346,-135.8 881.79,-135.8 881.79,-135.8"/>
<polygon fill="black" stroke="black" points="881.79,-132.3 871.79,-135.8 881.79,-139.3 881.79,-132.3"/>
</g>
<!-- BookComponent -->
<g id="node2" class="node">
<title>BookComponent</title>
<polygon fill="#ffffb3" stroke="black" points="1274.67,-84.8 1163.33,-84.8 1163.33,-48.8 1274.67,-48.8 1274.67,-84.8"/>
<text text-anchor="middle" x="1219" y="-62.6" font-family="Times,serif" font-size="14.00">BookComponent</text>
</g>
<!-- BookComponent&#45;&gt;AppModule -->
<g id="edge2" class="edge">
<title>BookComponent&#45;&gt;AppModule</title>
<path fill="none" stroke="black" d="M1219,-85.07C1219,-103.36 1219,-128.8 1219,-128.8 1219,-128.8 882,-128.8 882,-128.8"/>
<polygon fill="black" stroke="black" points="882,-125.3 872,-128.8 882,-132.3 882,-125.3"/>
</g>
<!-- DashboardComponent -->
<g id="node3" class="node">
<title>DashboardComponent</title>
<polygon fill="#ffffb3" stroke="black" points="1144.97,-84.8 1003.03,-84.8 1003.03,-48.8 1144.97,-48.8 1144.97,-84.8"/>
<text text-anchor="middle" x="1074" y="-62.6" font-family="Times,serif" font-size="14.00">DashboardComponent</text>
</g>
<!-- DashboardComponent&#45;&gt;AppModule -->
<g id="edge3" class="edge">
<title>DashboardComponent&#45;&gt;AppModule</title>
<path fill="none" stroke="black" d="M1074,-84.81C1074,-100.85 1074,-121.8 1074,-121.8 1074,-121.8 881.67,-121.8 881.67,-121.8"/>
<polygon fill="black" stroke="black" points="881.67,-118.3 871.67,-121.8 881.67,-125.3 881.67,-118.3"/>
</g>
<!-- DisplayBookComponent -->
<g id="node4" class="node">
<title>DisplayBookComponent</title>
<polygon fill="#ffffb3" stroke="black" points="984.72,-84.8 829.28,-84.8 829.28,-48.8 984.72,-48.8 984.72,-84.8"/>
<text text-anchor="middle" x="907" y="-62.6" font-family="Times,serif" font-size="14.00">DisplayBookComponent</text>
</g>
<!-- DisplayBookComponent&#45;&gt;AppModule -->
<g id="edge4" class="edge">
<title>DisplayBookComponent&#45;&gt;AppModule</title>
<path fill="none" stroke="black" d="M850.61,-84.91C850.61,-84.91 850.61,-103.79 850.61,-103.79"/>
<polygon fill="black" stroke="black" points="847.11,-103.79 850.61,-113.79 854.11,-103.79 847.11,-103.79"/>
</g>
<!-- LoginComponent -->
<g id="node5" class="node">
<title>LoginComponent</title>
<polygon fill="#ffffb3" stroke="black" points="811.28,-84.8 696.72,-84.8 696.72,-48.8 811.28,-48.8 811.28,-84.8"/>
<text text-anchor="middle" x="754" y="-62.6" font-family="Times,serif" font-size="14.00">LoginComponent</text>
</g>
<!-- LoginComponent&#45;&gt;AppModule -->
<g id="edge5" class="edge">
<title>LoginComponent&#45;&gt;AppModule</title>
<path fill="none" stroke="black" d="M799.78,-84.91C799.78,-84.91 799.78,-103.79 799.78,-103.79"/>
<polygon fill="black" stroke="black" points="796.28,-103.79 799.78,-113.79 803.28,-103.79 796.28,-103.79"/>
</g>
<!-- MyFavouritesComponent -->
<g id="node6" class="node">
<title>MyFavouritesComponent</title>
<polygon fill="#ffffb3" stroke="black" points="678.88,-84.8 519.12,-84.8 519.12,-48.8 678.88,-48.8 678.88,-84.8"/>
<text text-anchor="middle" x="599" y="-62.6" font-family="Times,serif" font-size="14.00">MyFavouritesComponent</text>
</g>
<!-- MyFavouritesComponent&#45;&gt;AppModule -->
<g id="edge6" class="edge">
<title>MyFavouritesComponent&#45;&gt;AppModule</title>
<path fill="none" stroke="black" d="M599,-84.81C599,-100.85 599,-121.8 599,-121.8 599,-121.8 778.17,-121.8 778.17,-121.8"/>
<polygon fill="black" stroke="black" points="778.17,-125.3 788.17,-121.8 778.17,-118.3 778.17,-125.3"/>
</g>
<!-- RecentSearchesComponent -->
<g id="node7" class="node">
<title>RecentSearchesComponent</title>
<polygon fill="#ffffb3" stroke="black" points="500.95,-84.8 331.05,-84.8 331.05,-48.8 500.95,-48.8 500.95,-84.8"/>
<text text-anchor="middle" x="416" y="-62.6" font-family="Times,serif" font-size="14.00">RecentSearchesComponent</text>
</g>
<!-- RecentSearchesComponent&#45;&gt;AppModule -->
<g id="edge7" class="edge">
<title>RecentSearchesComponent&#45;&gt;AppModule</title>
<path fill="none" stroke="black" d="M416,-85.07C416,-103.36 416,-128.8 416,-128.8 416,-128.8 778.03,-128.8 778.03,-128.8"/>
<polygon fill="black" stroke="black" points="778.03,-132.3 788.03,-128.8 778.03,-125.3 778.03,-132.3"/>
</g>
<!-- SearchBookComponent -->
<g id="node8" class="node">
<title>SearchBookComponent</title>
<polygon fill="#ffffb3" stroke="black" points="312.76,-84.8 163.24,-84.8 163.24,-48.8 312.76,-48.8 312.76,-84.8"/>
<text text-anchor="middle" x="238" y="-62.6" font-family="Times,serif" font-size="14.00">SearchBookComponent</text>
</g>
<!-- SearchBookComponent&#45;&gt;AppModule -->
<g id="edge8" class="edge">
<title>SearchBookComponent&#45;&gt;AppModule</title>
<path fill="none" stroke="black" d="M238,-84.93C238,-105.37 238,-135.8 238,-135.8 238,-135.8 777.9,-135.8 777.9,-135.8"/>
<polygon fill="black" stroke="black" points="777.9,-139.3 787.9,-135.8 777.9,-132.3 777.9,-139.3"/>
</g>
<!-- SignupComponent -->
<g id="node9" class="node">
<title>SignupComponent</title>
<polygon fill="#ffffb3" stroke="black" points="145.51,-84.8 24.49,-84.8 24.49,-48.8 145.51,-48.8 145.51,-84.8"/>
<text text-anchor="middle" x="85" y="-62.6" font-family="Times,serif" font-size="14.00">SignupComponent</text>
</g>
<!-- SignupComponent&#45;&gt;AppModule -->
<g id="edge9" class="edge">
<title>SignupComponent&#45;&gt;AppModule</title>
<path fill="none" stroke="black" d="M85,-84.81C85,-107.29 85,-142.8 85,-142.8 85,-142.8 778.08,-142.8 778.08,-142.8"/>
<polygon fill="black" stroke="black" points="778.08,-146.3 788.08,-142.8 778.08,-139.3 778.08,-146.3"/>
</g>
<!-- AppComponent  -->
<g id="node12" class="node">
<title>AppComponent </title>
<polygon fill="#80b1d3" stroke="black" points="884.44,-214.8 775.56,-214.8 775.56,-178.8 884.44,-178.8 884.44,-214.8"/>
<text text-anchor="middle" x="830" y="-192.6" font-family="Times,serif" font-size="14.00">AppComponent </text>
</g>
<!-- AppModule&#45;&gt;AppComponent  -->
<g id="edge11" class="edge">
<title>AppModule&#45;&gt;AppComponent </title>
<path fill="none" stroke="black" stroke-dasharray="1,5" d="M830,-149.91C830,-149.91 830,-168.79 830,-168.79"/>
<polygon fill="black" stroke="black" points="826.5,-168.79 830,-178.79 833.5,-168.79 826.5,-168.79"/>
</g>
<!-- AppRoutingModule -->
<g id="node11" class="node">
<title>AppRoutingModule</title>
<polygon fill="#8dd3c7" stroke="black" points="1551.27,-84.8 1548.27,-88.8 1527.27,-88.8 1524.27,-84.8 1422.73,-84.8 1422.73,-48.8 1551.27,-48.8 1551.27,-84.8"/>
<text text-anchor="middle" x="1487" y="-62.6" font-family="Times,serif" font-size="14.00">AppRoutingModule</text>
</g>
<!-- AppRoutingModule&#45;&gt;AppModule -->
<g id="edge10" class="edge">
<title>AppRoutingModule&#45;&gt;AppModule</title>
<path fill="none" stroke="black" d="M1487,-84.81C1487,-107.29 1487,-142.8 1487,-142.8 1487,-142.8 881.85,-142.8 881.85,-142.8"/>
<polygon fill="black" stroke="black" points="881.85,-139.3 871.85,-142.8 881.85,-146.3 881.85,-139.3"/>
</g>
</g>
</svg>
