<?xml version="1.0" encoding="UTF-8" standalone="no"?>
<!DOCTYPE svg PUBLIC "-//W3C//DTD SVG 1.1//EN"
 "http://www.w3.org/Graphics/SVG/1.1/DTD/svg11.dtd">
<!-- Generated by graphviz version 2.47.3 (20210619.1520)
 -->
<!-- Title: dependencies Pages: 1 -->
<svg width="1583pt" height="247pt"
 viewBox="0.00 0.00 1583.00 246.80" xmlns="http://www.w3.org/2000/svg" xmlns:xlink="http://www.w3.org/1999/xlink">
<g id="graph0" class="graph" transform="scale(1 1) rotate(0) translate(4 242.8)">
<title>dependencies</title>
<polygon fill="white" stroke="transparent" points="-4,4 -4,-242.8 1579,-242.8 1579,4 -4,4"/>
<text text-anchor="middle" x="787.5" y="-8.2" font-family="sans-serif" font-size="14.00">dependencies</text>
<g id="clust1" class="cluster">
<title>cluster_AppModule</title>
<polygon fill="none" stroke="black" stroke-dasharray="1,5" points="8,-32.8 8,-230.8 1567,-230.8 1567,-32.8 8,-32.8"/>
</g>
<g id="clust2" class="cluster">
<title>cluster_AppModule_declarations</title>
<polygon fill="none" stroke="black" points="168,-40.8 168,-92.8 1559,-92.8 1559,-40.8 168,-40.8"/>
</g>
<g id="clust12" class="cluster">
<title>cluster_AppModule_imports</title>
<polygon fill="none" stroke="black" points="16,-40.8 16,-92.8 160,-92.8 160,-40.8 16,-40.8"/>
</g>
<g id="clust14" class="cluster">
<title>cluster_AppModule_bootstrap</title>
<polygon fill="none" stroke="black" points="766,-170.8 766,-222.8 890,-222.8 890,-170.8 766,-170.8"/>
</g>
<!-- AppComponent -->
<g id="node1" class="node">
<title>AppComponent</title>
<polygon fill="#ffffb3" stroke="black" points="1550.94,-84.8 1445.06,-84.8 1445.06,-48.8 1550.94,-48.8 1550.94,-84.8"/>
<text text-anchor="middle" x="1498" y="-62.6" font-family="Times,serif" font-size="14.00">AppComponent</text>
</g>
<!-- AppModule -->
<g id="node10" class="node">
<title>AppModule</title>
<polygon fill="#8dd3c7" stroke="black" points="869.66,-149.8 866.66,-153.8 845.66,-153.8 842.66,-149.8 786.34,-149.8 786.34,-113.8 869.66,-113.8 869.66,-149.8"/>
<text text-anchor="middle" x="828" y="-127.6" font-family="Times,serif" font-size="14.00">AppModule</text>
</g>
<!-- AppComponent&#45;&gt;AppModule -->
<g id="edge1" class="edge">
<title>AppComponent&#45;&gt;AppModule</title>
<path fill="none" stroke="black" d="M1498,-84.81C1498,-107.29 1498,-142.8 1498,-142.8 1498,-142.8 879.66,-142.8 879.66,-142.8"/>
<polygon fill="black" stroke="black" points="879.66,-139.3 869.66,-142.8 879.66,-146.3 879.66,-139.3"/>
</g>
<!-- BookComponent -->
<g id="node2" class="node">
<title>BookComponent</title>
<polygon fill="#ffffb3" stroke="black" points="1426.67,-84.8 1315.33,-84.8 1315.33,-48.8 1426.67,-48.8 1426.67,-84.8"/>
<text text-anchor="middle" x="1371" y="-62.6" font-family="Times,serif" font-size="14.00">BookComponent</text>
</g>
<!-- BookComponent&#45;&gt;AppModule -->
<g id="edge2" class="edge">
<title>BookComponent&#45;&gt;AppModule</title>
<path fill="none" stroke="black" d="M1371,-84.93C1371,-105.37 1371,-135.8 1371,-135.8 1371,-135.8 879.71,-135.8 879.71,-135.8"/>
<polygon fill="black" stroke="black" points="879.71,-132.3 869.71,-135.8 879.71,-139.3 879.71,-132.3"/>
</g>
<!-- DashboardComponent -->
<g id="node3" class="node">
<title>DashboardComponent</title>
<polygon fill="#ffffb3" stroke="black" points="1296.97,-84.8 1155.03,-84.8 1155.03,-48.8 1296.97,-48.8 1296.97,-84.8"/>
<text text-anchor="middle" x="1226" y="-62.6" font-family="Times,serif" font-size="14.00">DashboardComponent</text>
</g>
<!-- DashboardComponent&#45;&gt;AppModule -->
<g id="edge3" class="edge">
<title>DashboardComponent&#45;&gt;AppModule</title>
<path fill="none" stroke="black" d="M1226,-85.07C1226,-103.36 1226,-128.8 1226,-128.8 1226,-128.8 879.84,-128.8 879.84,-128.8"/>
<polygon fill="black" stroke="black" points="879.84,-125.3 869.84,-128.8 879.84,-132.3 879.84,-125.3"/>
</g>
<!-- DisplayBookComponent -->
<g id="node4" class="node">
<title>DisplayBookComponent</title>
<polygon fill="#ffffb3" stroke="black" points="1136.72,-84.8 981.28,-84.8 981.28,-48.8 1136.72,-48.8 1136.72,-84.8"/>
<text text-anchor="middle" x="1059" y="-62.6" font-family="Times,serif" font-size="14.00">DisplayBookComponent</text>
</g>
<!-- DisplayBookComponent&#45;&gt;AppModule -->
<g id="edge4" class="edge">
<title>DisplayBookComponent&#45;&gt;AppModule</title>
<path fill="none" stroke="black" d="M1059,-84.81C1059,-100.85 1059,-121.8 1059,-121.8 1059,-121.8 879.83,-121.8 879.83,-121.8"/>
<polygon fill="black" stroke="black" points="879.83,-118.3 869.83,-121.8 879.83,-125.3 879.83,-118.3"/>
</g>
<!-- LoginComponent -->
<g id="node5" class="node">
<title>LoginComponent</title>
<polygon fill="#ffffb3" stroke="black" points="963.28,-84.8 848.72,-84.8 848.72,-48.8 963.28,-48.8 963.28,-84.8"/>
<text text-anchor="middle" x="906" y="-62.6" font-family="Times,serif" font-size="14.00">LoginComponent</text>
</g>
<!-- LoginComponent&#45;&gt;AppModule -->
<g id="edge5" class="edge">
<title>LoginComponent&#45;&gt;AppModule</title>
<path fill="none" stroke="black" d="M859.22,-84.91C859.22,-84.91 859.22,-103.79 859.22,-103.79"/>
<polygon fill="black" stroke="black" points="855.72,-103.79 859.22,-113.79 862.72,-103.79 855.72,-103.79"/>
</g>
<!-- MyFavouritesComponent -->
<g id="node6" class="node">
<title>MyFavouritesComponent</title>
<polygon fill="#ffffb3" stroke="black" points="830.88,-84.8 671.12,-84.8 671.12,-48.8 830.88,-48.8 830.88,-84.8"/>
<text text-anchor="middle" x="751" y="-62.6" font-family="Times,serif" font-size="14.00">MyFavouritesComponent</text>
</g>
<!-- MyFavouritesComponent&#45;&gt;AppModule -->
<g id="edge6" class="edge">
<title>MyFavouritesComponent&#45;&gt;AppModule</title>
<path fill="none" stroke="black" d="M808.55,-84.91C808.55,-84.91 808.55,-103.79 808.55,-103.79"/>
<polygon fill="black" stroke="black" points="805.05,-103.79 808.55,-113.79 812.05,-103.79 805.05,-103.79"/>
</g>
<!-- RecentSearchesComponent -->
<g id="node7" class="node">
<title>RecentSearchesComponent</title>
<polygon fill="#ffffb3" stroke="black" points="652.95,-84.8 483.05,-84.8 483.05,-48.8 652.95,-48.8 652.95,-84.8"/>
<text text-anchor="middle" x="568" y="-62.6" font-family="Times,serif" font-size="14.00">RecentSearchesComponent</text>
</g>
<!-- RecentSearchesComponent&#45;&gt;AppModule -->
<g id="edge7" class="edge">
<title>RecentSearchesComponent&#45;&gt;AppModule</title>
<path fill="none" stroke="black" d="M568,-84.81C568,-100.85 568,-121.8 568,-121.8 568,-121.8 776.23,-121.8 776.23,-121.8"/>
<polygon fill="black" stroke="black" points="776.23,-125.3 786.23,-121.8 776.23,-118.3 776.23,-125.3"/>
</g>
<!-- SearchBookComponent -->
<g id="node8" class="node">
<title>SearchBookComponent</title>
<polygon fill="#ffffb3" stroke="black" points="464.76,-84.8 315.24,-84.8 315.24,-48.8 464.76,-48.8 464.76,-84.8"/>
<text text-anchor="middle" x="390" y="-62.6" font-family="Times,serif" font-size="14.00">SearchBookComponent</text>
</g>
<!-- SearchBookComponent&#45;&gt;AppModule -->
<g id="edge8" class="edge">
<title>SearchBookComponent&#45;&gt;AppModule</title>
<path fill="none" stroke="black" d="M390,-85.07C390,-103.36 390,-128.8 390,-128.8 390,-128.8 776,-128.8 776,-128.8"/>
<polygon fill="black" stroke="black" points="776,-132.3 786,-128.8 776,-125.3 776,-132.3"/>
</g>
<!-- SignupComponent -->
<g id="node9" class="node">
<title>SignupComponent</title>
<polygon fill="#ffffb3" stroke="black" points="297.51,-84.8 176.49,-84.8 176.49,-48.8 297.51,-48.8 297.51,-84.8"/>
<text text-anchor="middle" x="237" y="-62.6" font-family="Times,serif" font-size="14.00">SignupComponent</text>
</g>
<!-- SignupComponent&#45;&gt;AppModule -->
<g id="edge9" class="edge">
<title>SignupComponent&#45;&gt;AppModule</title>
<path fill="none" stroke="black" d="M237,-84.93C237,-105.37 237,-135.8 237,-135.8 237,-135.8 775.97,-135.8 775.97,-135.8"/>
<polygon fill="black" stroke="black" points="775.97,-139.3 785.97,-135.8 775.97,-132.3 775.97,-139.3"/>
</g>
<!-- AppComponent  -->
<g id="node12" class="node">
<title>AppComponent </title>
<polygon fill="#80b1d3" stroke="black" points="882.44,-214.8 773.56,-214.8 773.56,-178.8 882.44,-178.8 882.44,-214.8"/>
<text text-anchor="middle" x="828" y="-192.6" font-family="Times,serif" font-size="14.00">AppComponent </text>
</g>
<!-- AppModule&#45;&gt;AppComponent  -->
<g id="edge11" class="edge">
<title>AppModule&#45;&gt;AppComponent </title>
<path fill="none" stroke="black" stroke-dasharray="1,5" d="M828,-149.91C828,-149.91 828,-168.79 828,-168.79"/>
<polygon fill="black" stroke="black" points="824.5,-168.79 828,-178.79 831.5,-168.79 824.5,-168.79"/>
</g>
<!-- AppRoutingModule -->
<g id="node11" class="node">
<title>AppRoutingModule</title>
<polygon fill="#8dd3c7" stroke="black" points="152.27,-84.8 149.27,-88.8 128.27,-88.8 125.27,-84.8 23.73,-84.8 23.73,-48.8 152.27,-48.8 152.27,-84.8"/>
<text text-anchor="middle" x="88" y="-62.6" font-family="Times,serif" font-size="14.00">AppRoutingModule</text>
</g>
<!-- AppRoutingModule&#45;&gt;AppModule -->
<g id="edge10" class="edge">
<title>AppRoutingModule&#45;&gt;AppModule</title>
<path fill="none" stroke="black" d="M88,-84.81C88,-107.29 88,-142.8 88,-142.8 88,-142.8 776.09,-142.8 776.09,-142.8"/>
<polygon fill="black" stroke="black" points="776.09,-146.3 786.09,-142.8 776.09,-139.3 776.09,-146.3"/>
</g>
</g>
</svg>
